<svg width="90" height="90" viewBox="0 0 90 90" fill="none" xmlns="http://www.w3.org/2000/svg">
<path fill-rule="evenodd" clip-rule="evenodd" d="M3.36107 1.45925C2.42067 1.99193 1.45513 3.25334 1.18311 4.30472C1.056 4.79586 0.995657 15.1427 1.00024 35.6481C1.00611 60.7073 1.05197 66.3922 1.253 66.9969C1.63195 68.1365 2.39315 69.0705 3.38107 69.6077L4.28075 70.0969H19.2357C32.4748 70.0969 34.1907 70.1311 34.1907 70.3951C34.1907 70.5593 33.7265 72.6853 33.159 75.1195L32.1274 79.5457L29.9032 79.5504C27.2544 79.5563 26.21 79.7795 25.5014 80.4921C24.6643 81.3339 24.4693 82.0664 24.4693 84.3685C24.4693 86.7053 24.6614 87.3988 25.5592 88.3055L26.1442 88.8961L44.8103 88.948L63.4765 89L64.0867 88.5543C65.2848 87.6791 65.4576 87.2295 65.5273 84.8047C65.6005 82.2636 65.4153 81.4045 64.613 80.5626C63.867 79.7801 62.8158 79.5457 60.0513 79.5457H57.8663L57.6818 78.8075C57.1411 76.6455 55.8377 70.7388 55.8362 70.4447C55.8347 70.1243 56.7557 70.1004 71.0428 70.051L86.2513 69.9985L87.0437 69.4006C87.9641 68.7063 88.5912 67.7843 88.8532 66.74C88.9753 66.2536 89.0221 55.4562 88.9904 35.1105L88.9423 4.21968L88.3876 3.25688C88.0826 2.72756 87.4771 2.02578 87.042 1.69764L86.2511 1.10098L45.2115 1.05039L4.17162 1L3.36107 1.45925ZM85.719 4.67086L86.0993 5.18956V31.4424V57.6953H45.0126H3.92601V31.4424V5.18956L4.30625 4.67086L4.6863 4.15216H45.0126H85.339L85.719 4.67086ZM86.0993 63.3774C86.0993 65.6414 86.0589 65.965 85.719 66.4286L85.339 66.9473H45.0126H4.6863L4.30625 66.4286C3.96637 65.965 3.92601 65.6414 3.92601 63.3774V60.8449H45.0126H86.0993V63.3774ZM52.6425 70.3246C52.7147 70.45 53.2465 72.576 53.8241 75.049L54.8745 79.5457H45.0126H35.1507L36.2012 75.049C36.7788 72.576 37.3105 70.45 37.3828 70.3246C37.5703 69.9991 52.455 69.9991 52.6425 70.3246ZM62.6212 84.3193V85.8449H45.0126H27.4041V84.3193V82.7937H45.0126H62.6212V84.3193Z" fill="white" stroke="black" stroke-width="0.2"/>
</svg>
