<svg width="69" height="103" viewBox="0 0 69 103" fill="none" xmlns="http://www.w3.org/2000/svg">
<path fill-rule="evenodd" clip-rule="evenodd" d="M30.4005 0.119603C17.361 1.54014 6.5106 8.07383 1.11576 17.7537C0.0353453 19.6923 -0.0020315 19.8196 7.09282e-05 21.5718C0.00380858 25.0387 1.36431 26.4427 7.22099 29.0239L10.8771 30.6352L12.9127 30.6308C16.1582 30.6237 17.5596 29.8163 20.072 26.5063C22.6019 23.173 25.0681 21.2141 28.4537 19.848C33.5675 17.7847 39.8152 18.7521 43.5384 22.1835C47.6858 26.006 47.8502 31.413 43.972 36.4255C42.0749 38.8774 38.8329 41.6375 33.6369 45.2248C31.3242 46.8214 28.6436 48.819 27.68 49.6639C22.4783 54.2242 19.7433 60.1979 19.7389 67.0076C19.7375 68.9848 19.7896 69.2305 20.4518 70.3731C21.2089 71.6794 21.9992 72.3697 23.5648 73.0917C24.4616 73.5054 24.8875 73.5396 29.8913 73.5997C35.9353 73.6722 36.5971 73.5823 38.3279 72.4545C39.8257 71.4782 40.6347 70.0696 41.1098 67.6096C41.785 64.1137 43.1207 61.9613 46.3683 59.1351C47.5888 58.0729 50.0066 56.2119 51.7411 54.9998C58.7698 50.088 62.8107 46.0943 65.6228 41.28C67.6358 37.8337 68.7475 34.1893 68.9622 30.3331C69.4787 21.0478 64.6725 11.5836 56.7227 6.23155C52.2294 3.20639 47.5391 1.4203 41.4626 0.420508C39.1504 0.040047 32.7328 -0.134574 30.4005 0.119603ZM40.1848 3.64103C53.6957 5.53044 62.7565 13.4778 64.8043 25.2358C65.2233 27.6413 65.1201 31.5103 64.5753 33.8261C63.412 38.7709 60.2023 43.6057 55.2566 47.8631C54.2867 48.6979 51.6166 50.7283 49.3231 52.3748C42.7591 57.0872 40.7045 59.0632 38.9114 62.3885C38.0749 63.9399 37.7364 64.9544 37.0258 68.0398C36.8251 68.9111 36.5896 69.3149 36.0568 69.7014L35.3532 70.212H30.3664H25.3797L24.6656 69.6937C23.7101 69.0005 23.4116 67.9483 23.5938 65.9149C24.1133 60.1216 26.0518 56.0447 30.016 52.4085C30.8512 51.6425 33.4266 49.6953 35.7393 48.0816C44.9335 41.6659 48.7015 37.6764 50.1073 32.8688C50.9974 29.8253 50.5899 25.6995 49.1575 23.2498C46.3372 18.4264 40.5693 15.4345 34.0831 15.4303C27.5302 15.4258 21.2596 18.7759 16.8476 24.6385C15.1261 26.9259 14.5297 27.318 12.7994 27.3009C11.8608 27.2918 11.1266 27.0356 8.29089 25.7285C5.38557 24.3891 4.82936 24.054 4.38177 23.373C3.58635 22.1622 3.67185 20.8784 4.66724 19.0877C9.29329 10.7648 18.7601 5.00175 30.1637 3.56611C32.4296 3.28071 37.9018 3.3216 40.1848 3.64103ZM27.7968 80.3652C24.2878 81.116 21.5054 83.3293 20.1577 86.4417C19.69 87.5216 19.6415 88.0034 19.6415 91.5613C19.6415 95.1192 19.69 95.6009 20.1577 96.6809C21.6149 100.046 24.6878 102.301 28.6062 102.881C33.7191 103.637 38.8504 100.73 40.3897 96.2074C40.9169 94.6579 40.9169 88.4646 40.3897 86.9152C38.7626 82.1341 33.1568 79.2182 27.7968 80.3652ZM32.382 83.8127C34.4743 84.4274 36.0449 85.9873 36.6768 88.0791C37.1405 89.6143 37.136 93.5228 36.6688 95.0698C35.2941 99.6204 29.2542 101.161 25.5332 97.9107C23.872 96.4595 23.6139 95.7036 23.519 92.0102C23.4165 88.0177 23.6854 87.0401 25.3178 85.4747C27.2058 83.664 29.7992 83.054 32.382 83.8127Z" fill="white"/>
</svg>
